<?xml version="1.0" encoding="UTF-8"?><svg id="Capa_2" xmlns="http://www.w3.org/2000/svg" viewBox="0 0 140 140"><defs><style>.cls-1{fill:#fff;}.cls-2{fill:#363636;}</style></defs><g id="Layer_5_copy"><rect class="cls-2" width="140" height="140" rx="5" ry="5"/><path class="cls-1" d="M70,115c-24.81,0-45-20.19-45-45S45.19,25,70,25s45,20.19,45,45-20.19,45-45,45Zm2.68-27.1c-.17,0-.33,.07-.45,.18-.13,.12-.2,.29-.2,.47v21.42c0,.2,.09,.38,.24,.51,.12,.09,.26,.14,.41,.14,.05,0,.1,0,.14-.02,6.85-1.56,13.13-8.88,16.8-19.6,.06-.17,.04-.36-.04-.52-.09-.16-.23-.28-.41-.32-5.14-1.32-10.68-2.08-16.47-2.27h-.02Zm-5.39,0c-5.79,.18-11.33,.95-16.47,2.27-.18,.05-.32,.16-.41,.32-.09,.16-.1,.35-.04,.52,3.67,10.71,9.95,18.04,16.8,19.59,.05,.01,.1,.02,.14,.02,.15,0,.29-.05,.41-.14,.15-.12,.24-.31,.24-.51v-21.42c0-.18-.07-.34-.2-.47-.12-.12-.28-.18-.45-.18h-.02Zm-21.54,3.85c-.07,0-.15,.01-.22,.04-2.57,.93-4.92,2.01-6.98,3.2-.16,.1-.28,.26-.31,.45-.03,.19,.02,.38,.14,.53,3.94,4.79,9,8.68,14.64,11.26,.09,.04,.18,.06,.27,.06,.2,0,.39-.09,.51-.25,.18-.24,.18-.57,0-.81-3.06-3.76-5.55-8.48-7.41-14.04-.06-.17-.18-.3-.33-.38-.09-.04-.19-.06-.28-.06Zm48.48,0c-.1,0-.19,.02-.28,.06-.16,.08-.28,.21-.33,.38-1.86,5.55-4.35,10.28-7.41,14.04-.19,.23-.19,.57,0,.81,.13,.16,.32,.25,.51,.25,.09,0,.18-.02,.27-.06,5.64-2.58,10.7-6.48,14.63-11.26,.12-.15,.17-.34,.14-.53-.03-.19-.15-.35-.31-.45-2.08-1.21-4.43-2.29-6.98-3.21-.07-.03-.15-.04-.22-.04Zm3.41-19.71c-.35,0-.64,.28-.65,.63-.17,5-.81,9.86-1.92,14.44-.08,.32,.1,.65,.41,.76,3.13,1.11,5.96,2.41,8.42,3.87,.1,.06,.22,.09,.33,.09,.22,0,.43-.11,.55-.31,3.51-5.65,5.59-12.15,6.03-18.79,.01-.18-.05-.36-.17-.49-.12-.13-.29-.21-.47-.21h-12.54Zm-67.83,0c-.18,0-.35,.07-.47,.21-.12,.13-.19,.31-.17,.49,.44,6.64,2.52,13.14,6.03,18.79,.12,.2,.33,.31,.55,.31,.11,0,.23-.03,.33-.09,2.46-1.46,5.3-2.76,8.42-3.87,.31-.11,.49-.44,.41-.76-1.1-4.58-1.75-9.44-1.92-14.44-.01-.35-.3-.63-.65-.63h-12.54Zm17.91,0c-.18,0-.35,.07-.47,.2-.12,.13-.19,.3-.18,.48,.17,4.52,.78,8.93,1.79,13.11,.04,.17,.15,.32,.3,.4,.1,.06,.22,.09,.33,.09,.05,0,.11,0,.16-.02,5.55-1.45,11.5-2.27,17.68-2.46,.35-.01,.63-.3,.63-.65v-10.5c0-.36-.29-.65-.65-.65h-19.59Zm24.96,0c-.36,0-.65,.29-.65,.65v10.5c0,.35,.28,.64,.63,.65,6.18,.19,12.13,1.01,17.68,2.46,.05,.01,.11,.02,.16,.02,.12,0,.23-.03,.33-.09,.15-.09,.26-.24,.3-.4,1.01-4.18,1.61-8.59,1.79-13.11,0-.18-.06-.35-.18-.48-.12-.13-.29-.2-.47-.2h-19.59Zm31.57-23.86c-.11,0-.23,.03-.33,.09-2.46,1.46-5.29,2.77-8.42,3.87-.31,.11-.49,.44-.41,.76,1.1,4.58,1.75,9.44,1.92,14.44,.01,.35,.3,.63,.65,.63h12.54c.18,0,.35-.07,.47-.21,.12-.13,.19-.31,.17-.49-.44-6.64-2.52-13.14-6.03-18.79-.12-.2-.33-.31-.55-.31Zm-13.75,5.51c-.05,0-.11,0-.16,.02-5.54,1.44-11.49,2.27-17.68,2.46-.35,.01-.63,.3-.63,.65v10.5c0,.36,.29,.65,.65,.65h19.59c.18,0,.35-.07,.47-.2,.12-.13,.19-.3,.18-.48-.17-4.52-.78-8.93-1.79-13.11-.04-.17-.15-.32-.3-.4-.1-.06-.22-.09-.33-.09Zm-41.01,0c-.12,0-.23,.03-.33,.09-.15,.09-.26,.24-.3,.4-1.01,4.18-1.61,8.59-1.79,13.11,0,.18,.06,.35,.18,.48,.12,.13,.29,.2,.47,.2h19.59c.36,0,.65-.29,.65-.65v-10.5c0-.35-.28-.64-.63-.65-6.18-.19-12.13-1.01-17.68-2.46-.05-.01-.11-.02-.16-.02Zm-13.75-5.51c-.22,0-.43,.11-.55,.31-3.51,5.65-5.59,12.15-6.03,18.79-.01,.18,.05,.36,.17,.49,.12,.13,.3,.21,.47,.21h12.54c.35,0,.64-.28,.65-.63,.17-5,.81-9.86,1.92-14.44,.08-.32-.1-.65-.41-.77-3.13-1.11-5.97-2.41-8.42-3.87-.1-.06-.22-.09-.33-.09Zm36.93-18.79c-.15,0-.29,.05-.41,.14-.15,.12-.24,.31-.24,.51v21.42c0,.18,.07,.34,.2,.47,.12,.12,.28,.18,.45,.18h.02c5.79-.18,11.34-.94,16.47-2.27,.18-.05,.32-.16,.41-.32,.09-.16,.1-.35,.04-.52-3.67-10.71-9.95-18.04-16.8-19.6-.05-.01-.1-.02-.14-.02Zm-5.37,0s-.1,0-.14,.02c-6.85,1.56-13.13,8.88-16.8,19.59-.06,.17-.04,.36,.04,.52,.09,.16,.23,.28,.41,.32,5.14,1.32,10.68,2.09,16.47,2.27h.02c.17,0,.33-.07,.45-.18,.13-.12,.2-.29,.2-.47V30.03c0-.2-.09-.38-.24-.51-.12-.09-.26-.14-.41-.14Zm19.4,3.33c-.2,0-.39,.09-.51,.25-.18,.24-.18,.57,0,.81,3.06,3.76,5.55,8.49,7.41,14.04,.06,.17,.18,.3,.33,.38,.09,.04,.19,.06,.28,.06,.07,0,.15-.01,.22-.04,2.55-.92,4.9-2,6.98-3.21,.16-.1,.28-.26,.31-.45,.03-.19-.02-.38-.14-.53-3.94-4.79-9-8.68-14.63-11.26-.09-.04-.18-.06-.27-.06Zm-33.43,0c-.09,0-.18,.02-.27,.06-5.64,2.58-10.7,6.48-14.64,11.26-.12,.15-.17,.34-.14,.53,.03,.19,.15,.35,.31,.45,2.06,1.19,4.41,2.27,6.98,3.2,.07,.03,.15,.04,.22,.04,.1,0,.19-.02,.28-.06,.16-.08,.28-.21,.33-.38,1.86-5.55,4.35-10.27,7.41-14.04,.19-.23,.19-.57,0-.81-.13-.16-.32-.25-.51-.25Z"/></g></svg>